<svg width="172.000000" height="29.000000" viewBox="0 0 172 29" fill="none" xmlns="http://www.w3.org/2000/svg" xmlns:xlink="http://www.w3.org/1999/xlink">
	<desc>
			Created with Pixso.
	</desc>
	<defs>
		<clipPath id="clip6_336">
			<rect id="dashicons-cloud" width="29.000000" height="29.000000" fill="white" fill-opacity="0"/>
		</clipPath>
	</defs>
	<path id="Logo" d="M46.73 19.04C46.63 18.94 46.51 18.89 46.38 18.89C46.31 18.89 46.24 18.91 46.17 18.95C46.11 18.98 46.05 19.02 45.99 19.07C45.79 19.25 45.59 19.41 45.38 19.53C45.18 19.65 44.97 19.75 44.74 19.83C44.52 19.91 44.28 19.96 44.01 20Q43.61 20.05 43.11 20.05Q42.41 20.05 41.79 19.83Q41.67 19.79 41.57 19.75Q41.23 19.6 40.93 19.39Q40.6 19.16 40.32 18.85Q39.78 18.26 39.47 17.41Q39.16 16.55 39.16 15.45Q39.16 14.37 39.45 13.52Q39.74 12.66 40.26 12.08C40.61 11.68 41.02 11.38 41.5 11.18C41.99 10.97 42.52 10.86 43.11 10.86Q43.62 10.86 44.01 10.95C44.27 10.99 44.5 11.06 44.7 11.13C44.9 11.21 45.07 11.29 45.22 11.38C45.37 11.47 45.5 11.55 45.62 11.63C45.73 11.7 45.84 11.76 45.93 11.82C46.03 11.87 46.12 11.89 46.21 11.89C46.34 11.89 46.44 11.86 46.52 11.81C46.59 11.76 46.66 11.69 46.71 11.62L47.52 10.5C47 9.99 46.37 9.58 45.63 9.27C44.9 8.96 44.06 8.8 43.11 8.8Q41.68 8.8 40.5 9.3C39.72 9.62 39.04 10.08 38.47 10.67Q38.41 10.73 38.35 10.79Q37.59 11.63 37.16 12.77Q36.69 13.99 36.69 15.45Q36.69 16.9 37.12 18.13Q37.55 19.31 38.33 20.18Q38.36 20.21 38.38 20.23C38.93 20.82 39.58 21.28 40.35 21.61C41.13 21.94 42 22.11 42.96 22.11Q44.58 22.11 45.73 21.58C46.51 21.24 47.16 20.73 47.69 20.08L46.73 19.04ZM70.17 18.11C70.49 17.29 70.65 16.41 70.65 15.45C70.65 14.82 70.58 14.21 70.43 13.64C70.3 13.06 70.09 12.53 69.82 12.03C69.55 11.54 69.22 11.1 68.83 10.7C68.45 10.3 68.01 9.96 67.53 9.68C67.04 9.4 66.51 9.19 65.92 9.04C65.34 8.88 64.72 8.8 64.06 8.8Q62.59 8.8 61.37 9.31Q60.4 9.7 59.64 10.36Q59.46 10.52 59.28 10.69C58.71 11.29 58.26 11.99 57.94 12.81Q57.46 14.02 57.46 15.45Q57.46 16.89 57.94 18.11C58.26 18.92 58.71 19.62 59.28 20.21C59.86 20.81 60.56 21.27 61.37 21.61C62.18 21.94 63.08 22.11 64.06 22.11C65.05 22.11 65.95 21.94 66.76 21.61C67.57 21.27 68.26 20.81 68.84 20.21Q69.02 20.03 69.18 19.84Q69.8 19.08 70.17 18.11ZM149.46 20.7L149.46 15.44L145.14 15.44L145.14 16.8Q145.14 16.91 145.17 16.99Q145.21 17.07 145.26 17.13C145.35 17.21 145.48 17.25 145.63 17.25L147.27 17.25L147.27 19.61C146.91 19.79 146.54 19.92 146.16 20.03C145.78 20.13 145.36 20.18 144.88 20.18C144.2 20.18 143.6 20.07 143.05 19.86C142.5 19.65 142.03 19.34 141.64 18.94C141.26 18.53 140.96 18.03 140.75 17.45C140.53 16.86 140.43 16.2 140.43 15.45Q140.43 14.41 140.73 13.56C140.92 13 141.21 12.52 141.57 12.12C141.94 11.71 142.38 11.4 142.9 11.19Q143.68 10.86 144.64 10.86Q145.24 10.86 145.69 10.95C145.99 11 146.27 11.07 146.5 11.15Q146.87 11.28 147.17 11.45L147.77 11.79C147.97 11.92 148.16 11.96 148.33 11.93C148.51 11.88 148.65 11.78 148.75 11.6L149.45 10.5C149.18 10.25 148.88 10.02 148.56 9.81Q148.07 9.5 147.48 9.28C147.09 9.13 146.66 9.01 146.2 8.93C145.74 8.85 145.25 8.8 144.72 8.8C143.69 8.8 142.75 8.97 141.92 9.29C141.08 9.61 140.37 10.07 139.78 10.66C139.2 11.25 138.75 11.95 138.43 12.76C138.11 13.58 137.96 14.48 137.96 15.45C137.96 16.42 138.12 17.31 138.45 18.13C138.78 18.94 139.25 19.65 139.85 20.23C140.47 20.82 141.2 21.28 142.06 21.61C142.92 21.94 143.89 22.11 144.95 22.11C145.8 22.11 146.6 21.99 147.34 21.77Q147.47 21.73 147.6 21.69Q148.58 21.35 149.46 20.7ZM56.97 21.96L56.97 19.96L51.77 19.96L51.77 8.95L49.34 8.95L49.34 21.96L56.97 21.96ZM79.26 19.77C78.9 19.93 78.48 20.01 78.01 20.01C77.55 20.01 77.13 19.93 76.75 19.77Q76.36 19.61 76.05 19.34Q75.93 19.23 75.82 19.12C75.57 18.83 75.37 18.48 75.23 18.08C75.1 17.68 75.04 17.23 75.04 16.73L75.04 8.95L72.61 8.95L72.61 16.74C72.61 17.52 72.74 18.23 72.98 18.89C73.24 19.55 73.59 20.11 74.05 20.59C74.52 21.07 75.09 21.44 75.76 21.71C76.42 21.97 77.17 22.11 78.01 22.11Q79.26 22.11 80.26 21.71C80.93 21.44 81.49 21.07 81.96 20.59C82.42 20.11 82.78 19.55 83.03 18.89Q83.41 17.9 83.41 16.74L83.41 8.95L80.98 8.95L80.98 16.74Q80.98 17.49 80.78 18.09C80.65 18.49 80.45 18.84 80.2 19.12Q80.14 19.19 80.06 19.26Q79.73 19.58 79.26 19.77ZM97.21 18.08Q97.69 16.89 97.69 15.45Q97.69 14.02 97.21 12.83C96.9 12.03 96.45 11.34 95.87 10.77C95.3 10.2 94.6 9.75 93.79 9.43C92.98 9.11 92.08 8.95 91.09 8.95L86.14 8.95L86.14 21.96L91.09 21.96C92.08 21.96 92.98 21.8 93.79 21.48C94.6 21.17 95.3 20.72 95.87 20.14C96.45 19.57 96.9 18.88 97.21 18.08ZM106.5 9.19C105.89 9.03 105.16 8.95 104.31 8.95L99.83 8.95L99.83 21.96L104.74 21.96C105.5 21.96 106.17 21.87 106.76 21.67C107.35 21.48 107.84 21.22 108.24 20.88C108.65 20.54 108.95 20.13 109.16 19.67C109.37 19.2 109.48 18.69 109.48 18.14C109.48 16.61 108.58 15.64 106.8 15.24C107.2 15.1 107.54 14.93 107.83 14.73C108.12 14.54 108.36 14.32 108.55 14.08C108.74 13.83 108.88 13.57 108.97 13.29C109.06 13.01 109.11 12.72 109.11 12.41C109.11 11.88 109.02 11.4 108.84 10.97C108.66 10.55 108.37 10.18 107.98 9.88C107.6 9.58 107.1 9.35 106.5 9.19ZM118.17 19.77C117.8 19.93 117.38 20.01 116.91 20.01Q116.21 20.01 115.65 19.77C115.29 19.62 114.98 19.4 114.72 19.12C114.47 18.83 114.27 18.48 114.13 18.08C114 17.68 113.94 17.23 113.94 16.73L113.94 8.95L111.51 8.95L111.51 16.74C111.51 17.52 111.64 18.23 111.88 18.89C112.14 19.55 112.49 20.11 112.95 20.59C113.42 21.07 113.99 21.44 114.66 21.71Q115.65 22.11 116.91 22.11C117.75 22.11 118.5 21.97 119.16 21.71C119.83 21.44 120.39 21.07 120.86 20.59C121.32 20.11 121.68 19.55 121.93 18.89C122.18 18.23 122.31 17.52 122.31 16.74L122.31 8.95L119.88 8.95L119.88 16.74Q119.88 17.49 119.68 18.09C119.55 18.49 119.35 18.84 119.1 19.12C118.85 19.4 118.54 19.62 118.17 19.77ZM136.12 18.08C136.43 17.28 136.59 16.41 136.59 15.45C136.59 14.5 136.43 13.62 136.12 12.83C135.8 12.03 135.35 11.34 134.77 10.77C134.2 10.2 133.5 9.75 132.7 9.43C131.89 9.11 130.99 8.95 130 8.95L125.04 8.95L125.04 21.96L130 21.96Q131.48 21.96 132.7 21.48C133.5 21.17 134.2 20.72 134.77 20.14C135.35 19.57 135.8 18.88 136.12 18.08ZM154.22 14.48L154.22 10.87L160 10.87L160 8.95L151.79 8.95L151.79 21.96L160 21.96L160 20.03L154.22 20.03L154.22 16.35L158.77 16.35L158.77 14.48L154.22 14.48ZM167.31 10.94L171.23 10.94L171.23 8.95L160.96 8.95L160.96 10.94L164.89 10.94L164.89 21.96L167.31 21.96L167.31 10.94ZM102.25 14.58L102.25 10.82L104.31 10.82C105.13 10.82 105.73 10.96 106.11 11.25C106.5 11.54 106.69 12.02 106.69 12.7C106.69 13.35 106.47 13.83 106.05 14.13Q105.42 14.58 104.18 14.58L102.25 14.58ZM67.89 13.54Q68.17 14.38 68.17 15.45Q68.17 16.53 67.89 17.38C67.69 17.94 67.42 18.42 67.07 18.82C66.71 19.21 66.28 19.51 65.77 19.72C65.27 19.93 64.7 20.04 64.06 20.04C63.43 20.04 62.85 19.93 62.34 19.72C61.84 19.51 61.41 19.21 61.05 18.82C60.69 18.42 60.42 17.94 60.23 17.38C60.04 16.81 59.94 16.17 59.94 15.45Q59.94 14.38 60.23 13.54C60.42 12.97 60.69 12.48 61.05 12.09C61.41 11.69 61.84 11.39 62.34 11.18C62.85 10.97 63.43 10.86 64.06 10.86C64.7 10.86 65.27 10.97 65.77 11.18C66.28 11.39 66.71 11.69 67.07 12.09C67.42 12.48 67.69 12.97 67.89 13.54ZM94.92 13.54C95.11 14.1 95.21 14.74 95.21 15.45C95.21 16.17 95.11 16.81 94.92 17.38C94.73 17.94 94.46 18.42 94.1 18.82C93.75 19.21 93.31 19.51 92.8 19.72C92.3 19.93 91.73 20.04 91.09 20.04L88.57 20.04L88.57 10.87L91.09 10.87Q92.05 10.87 92.8 11.19C93.31 11.4 93.75 11.7 94.1 12.1C94.46 12.49 94.73 12.97 94.92 13.54ZM133.82 13.54C134.01 14.1 134.11 14.74 134.11 15.45C134.11 16.17 134.01 16.81 133.82 17.38C133.63 17.94 133.36 18.42 133 18.82Q132.86 18.97 132.7 19.11Q132.27 19.49 131.71 19.72C131.2 19.93 130.63 20.04 130 20.04L127.47 20.04L127.47 10.87L130 10.87C130.63 10.87 131.2 10.98 131.71 11.19C132.22 11.4 132.65 11.7 133 12.1C133.36 12.49 133.63 12.97 133.82 13.54ZM105.83 19.91C105.53 20.02 105.15 20.07 104.7 20.07L102.25 20.07L102.25 16.26L104.69 16.26C105.12 16.26 105.48 16.3 105.78 16.38C106.08 16.46 106.33 16.59 106.53 16.75C106.72 16.91 106.86 17.1 106.95 17.33C107.04 17.55 107.08 17.8 107.08 18.08C107.08 18.35 107.04 18.61 106.96 18.85C106.88 19.09 106.75 19.3 106.56 19.48C106.38 19.66 106.14 19.8 105.83 19.91Z" fill="#FFFFFF" fill-opacity="1.000000" fill-rule="evenodd"/>
	<rect id="dashicons-cloud" width="29.000000" height="29.000000" fill="#FFFFFF" fill-opacity="0"/>
	<g clip-path="url(#clip6_336)">
		<path id="Vector" d="M21.6 13.05C21.6 12.61 21.75 12.18 21.75 11.6C21.75 8.4 19.14 5.79 15.95 5.79C13.63 5.79 11.74 7.1 10.73 8.98C10.44 8.84 9.85 8.69 9.42 8.69C7.39 8.69 5.79 10.29 5.79 12.32C5.79 12.61 5.79 12.9 5.94 13.05C3.33 13.48 1.45 15.51 1.45 18.12C1.45 20.88 3.77 23.2 6.52 23.2L21.02 23.2C23.78 23.2 26.1 20.88 26.1 18.12C26.1 15.51 24.21 13.34 21.6 13.05Z" fill="#FFFFFF" fill-opacity="1.000000" fill-rule="nonzero"/>
	</g>
</svg>
