<svg width="32.000000" height="32.000000" viewBox="0 0 32 32" fill="none" xmlns="http://www.w3.org/2000/svg" xmlns:xlink="http://www.w3.org/1999/xlink">
	<desc>
			Created with Pixso.
	</desc>
	<defs>
		<clipPath id="clip2_36">
			<rect width="32.000000" height="32.000000" fill="white" fill-opacity="0"/>
		</clipPath>
	</defs>
	<rect width="32.000000" height="32.000000" fill="#FFFFFF" fill-opacity="0"/>
	<rect width="32.000000" height="32.000000" fill="#FFFFFF" fill-opacity="0"/>
	<g clip-path="url(#clip2_36)">
		<path d="M24 3.29C21.65 1.85 18.95 1 16 1L16 3.29L24 3.29Z" fill="#ED4C5C" fill-opacity="1.000000" fill-rule="nonzero"/>
		<path d="M16 5.59L26.8 5.59C25.95 4.75 25 3.94 24 3.29L16 3.29L16 5.59Z" fill="#FFFFFF" fill-opacity="1.000000" fill-rule="nonzero"/>
		<path d="M16 7.89L28.65 7.89C28.1 7.05 27.5 6.3 26.85 5.6L16 5.6L16 7.89Z" fill="#ED4C5C" fill-opacity="1.000000" fill-rule="nonzero"/>
		<path d="M16 10.2L29.85 10.2C29.5 9.39 29.1 8.6 28.65 7.89L16 7.89L16 10.2Z" fill="#FFFFFF" fill-opacity="1.000000" fill-rule="nonzero"/>
		<path d="M16 12.5L30.6 12.5C30.4 11.7 30.15 10.95 29.85 10.2L16 10.2L16 12.5Z" fill="#ED4C5C" fill-opacity="1.000000" fill-rule="nonzero"/>
		<path d="M16 14.85L30.95 14.85C30.9 14.05 30.75 13.3 30.6 12.55L16 12.55L16 14.85Z" fill="#FFFFFF" fill-opacity="1.000000" fill-rule="nonzero"/>
		<path d="M30.95 14.85L16 14.85L16 16L1 16C1 16.4 1 16.75 1.04 17.15L30.95 17.15C31 16.75 31 16.4 31 16C31 15.6 31 15.2 30.95 14.85Z" fill="#ED4C5C" fill-opacity="1.000000" fill-rule="nonzero"/>
		<path d="M1.4 19.45L30.6 19.45C30.8 18.7 30.9 17.95 30.95 17.15L1.05 17.15C1.1 17.9 1.2 18.7 1.4 19.45Z" fill="#FFFFFF" fill-opacity="1.000000" fill-rule="nonzero"/>
		<path d="M2.15 21.75L29.85 21.75C30.15 21 30.4 20.25 30.6 19.45L1.4 19.45C1.6 20.25 1.85 21 2.15 21.75Z" fill="#ED4C5C" fill-opacity="1.000000" fill-rule="nonzero"/>
		<path d="M3.35 24.05L28.65 24.05C29.1 23.3 29.5 22.55 29.85 21.75L2.15 21.75C2.5 22.55 2.9 23.3 3.35 24.05Z" fill="#FFFFFF" fill-opacity="1.000000" fill-rule="nonzero"/>
		<path d="M5.14 26.35L26.85 26.35C27.5 25.65 28.15 24.85 28.65 24.05L3.34 24.05C3.84 24.9 4.49 25.65 5.14 26.35Z" fill="#ED4C5C" fill-opacity="1.000000" fill-rule="nonzero"/>
		<path d="M7.95 28.65L24.05 28.65C25.1 28 26 27.2 26.85 26.35L5.15 26.35C6 27.25 6.95 28 7.95 28.65Z" fill="#FFFFFF" fill-opacity="1.000000" fill-rule="nonzero"/>
		<path d="M15.99 31C18.95 31 21.7 30.15 24.05 28.65L7.94 28.65C10.3 30.15 13.05 31 15.99 31Z" fill="#ED4C5C" fill-opacity="1.000000" fill-rule="nonzero"/>
		<path d="M8 3.29C6.95 3.95 6 4.75 5.14 5.6C4.45 6.29 3.85 7.1 3.35 7.89C2.89 8.64 2.45 9.39 2.14 10.2C1.85 10.95 1.6 11.7 1.39 12.5C1.2 13.25 1.1 14 1.04 14.8C1 15.2 1 15.6 1 16L16 16L16 1C13.05 1 10.35 1.85 8 3.29Z" fill="#428BC1" fill-opacity="1.000000" fill-rule="nonzero"/>
		<path d="M12.5 1.5L12.75 2.25L13.5 2.25L12.9 2.75L13.1 3.5L12.5 3.04L11.9 3.5L12.1 2.75L11.5 2.25L12.25 2.25L12.5 1.5Z" fill="#FFFFFF" fill-opacity="1.000000" fill-rule="nonzero"/>
		<path d="M14.5 4.5L14.75 5.25L15.5 5.25L14.9 5.75L15.1 6.5L14.5 6.04L13.9 6.5L14.1 5.75L13.5 5.25L14.25 5.25L14.5 4.5Z" fill="#FFFFFF" fill-opacity="1.000000" fill-rule="nonzero"/>
		<path d="M10.5 4.5L10.75 5.25L11.5 5.25L10.9 5.75L11.1 6.5L10.5 6.04L9.89 6.5L10.1 5.75L9.5 5.25L10.25 5.25L10.5 4.5Z" fill="#FFFFFF" fill-opacity="1.000000" fill-rule="nonzero"/>
		<path d="M12.5 7.5L12.75 8.25L13.5 8.25L12.9 8.75L13.1 9.5L12.5 9.04L11.9 9.5L12.1 8.75L11.5 8.25L12.25 8.25L12.5 7.5Z" fill="#FFFFFF" fill-opacity="1.000000" fill-rule="nonzero"/>
		<path d="M8.5 7.5L8.75 8.25L9.5 8.25L8.89 8.75L9.1 9.5L8.5 9.04L7.89 9.5L8.1 8.75L7.5 8.25L8.25 8.25L8.5 7.5Z" fill="#FFFFFF" fill-opacity="1.000000" fill-rule="nonzero"/>
		<path d="M4.5 7.5L4.75 8.25L5.5 8.25L4.89 8.75L5.1 9.5L4.5 9.04L3.89 9.5L4.1 8.75L3.5 8.25L4.25 8.25L4.5 7.5Z" fill="#FFFFFF" fill-opacity="1.000000" fill-rule="nonzero"/>
		<path d="M14.5 10.5L14.75 11.25L15.5 11.25L14.9 11.75L15.1 12.5L14.5 12.05L13.9 12.5L14.1 11.75L13.5 11.25L14.25 11.25L14.5 10.5Z" fill="#FFFFFF" fill-opacity="1.000000" fill-rule="nonzero"/>
		<path d="M10.5 10.5L10.75 11.25L11.5 11.25L10.9 11.75L11.1 12.5L10.5 12.05L9.89 12.5L10.1 11.75L9.5 11.25L10.25 11.25L10.5 10.5Z" fill="#FFFFFF" fill-opacity="1.000000" fill-rule="nonzero"/>
		<path d="M6.5 10.5L6.75 11.25L7.5 11.25L6.89 11.75L7.1 12.5L6.5 12.05L5.89 12.5L6.1 11.75L5.5 11.25L6.25 11.25L6.5 10.5Z" fill="#FFFFFF" fill-opacity="1.000000" fill-rule="nonzero"/>
		<path d="M12.5 13.5L12.75 14.25L13.5 14.25L12.9 14.75L13.1 15.5L12.5 15.05L11.9 15.5L12.1 14.75L11.5 14.25L12.25 14.25L12.5 13.5Z" fill="#FFFFFF" fill-opacity="1.000000" fill-rule="nonzero"/>
		<path d="M8.5 13.5L8.75 14.25L9.5 14.25L8.89 14.75L9.1 15.5L8.5 15.05L7.89 15.5L8.1 14.75L7.5 14.25L8.25 14.25L8.5 13.5Z" fill="#FFFFFF" fill-opacity="1.000000" fill-rule="nonzero"/>
		<path d="M4.5 13.5L4.75 14.25L5.5 14.25L4.89 14.75L5.1 15.5L4.5 15.05L3.89 15.5L4.1 14.75L3.5 14.25L4.25 14.25L4.5 13.5Z" fill="#FFFFFF" fill-opacity="1.000000" fill-rule="nonzero"/>
		<path d="M5.9 6.5L6.5 6.04L7.1 6.5L6.85 5.75L7.45 5.25L6.7 5.25L6.5 4.5L6.25 5.25L5.55 5.25L6.15 5.7L5.9 6.5Z" fill="#FFFFFF" fill-opacity="1.000000" fill-rule="nonzero"/>
		<path d="M1.89 12.5L2.49 12.05L3.09 12.5L2.84 11.75L3.44 11.25L2.74 11.25L2.49 10.5L2.24 11.25L1.74 11.25C1.74 11.3 1.69 11.35 1.69 11.4L2.09 11.7L1.89 12.5Z" fill="#FFFFFF" fill-opacity="1.000000" fill-rule="nonzero"/>
	</g>
</svg>
