<svg width="29.000000" height="29.000000" viewBox="0 0 29 29" fill="none" xmlns="http://www.w3.org/2000/svg" xmlns:xlink="http://www.w3.org/1999/xlink">
	<desc>
			Created with Pixso.
	</desc>
	<defs>
		<clipPath id="clip6_336">
			<rect width="29.000000" height="29.000000" fill="white" fill-opacity="0"/>
		</clipPath>
	</defs>
	<rect width="29.000000" height="29.000000" fill="#FFFFFF" fill-opacity="0"/>
	<g clip-path="url(#clip6_336)">
		<path d="M21.6 13.05C21.6 12.61 21.75 12.18 21.75 11.6C21.75 8.4 19.14 5.79 15.95 5.79C13.63 5.79 11.74 7.1 10.73 8.98C10.44 8.84 9.85 8.69 9.42 8.69C7.39 8.69 5.79 10.29 5.79 12.32C5.79 12.61 5.79 12.9 5.94 13.05C3.33 13.48 1.45 15.51 1.45 18.12C1.45 20.88 3.77 23.2 6.52 23.2L21.02 23.2C23.78 23.2 26.1 20.88 26.1 18.12C26.1 15.51 24.21 13.34 21.6 13.05Z" fill="#FFFFFF" fill-opacity="1.000000" fill-rule="nonzero"/>
	</g>
</svg>
