<svg width="32.000000" height="32.000000" viewBox="0 0 32 32" fill="none" xmlns="http://www.w3.org/2000/svg" xmlns:xlink="http://www.w3.org/1999/xlink">
	<desc>
			Created with Pixso.
	</desc>
	<defs>
		<clipPath id="clip6_346">
			<rect id="ion-logo-google-playstore" width="32.000000" height="32.000000" fill="white" fill-opacity="0"/>
		</clipPath>
	</defs>
	<rect id="ion-logo-google-playstore" width="32.000000" height="32.000000" fill="#FFFFFF" fill-opacity="0"/>
	<g clip-path="url(#clip6_346)">
		<path id="Vector" d="M3 3.71L3 28.28C3 28.33 3.01 28.38 3.04 28.43C3.07 28.47 3.11 28.5 3.16 28.52C3.21 28.55 3.26 28.55 3.32 28.54C3.37 28.53 3.42 28.5 3.46 28.47L16.25 16L3.46 3.52C3.42 3.48 3.37 3.46 3.32 3.45C3.26 3.44 3.21 3.44 3.16 3.46C3.11 3.48 3.07 3.52 3.04 3.56C3.01 3.61 3 3.66 3 3.71Z" fill="#FFFFFF" fill-opacity="1.000000" fill-rule="nonzero"/>
		<path id="Vector" d="M21.61 10.87L5.57 2.04L5.56 2.03C5.29 1.88 5.02 2.25 5.25 2.47L17.82 14.49L21.61 10.87Z" fill="#FFFFFF" fill-opacity="1.000000" fill-rule="nonzero"/>
		<path id="Vector" d="M5.25 29.52C5.02 29.74 5.28 30.11 5.56 29.96L5.57 29.96L21.61 21.12L17.82 17.5L5.25 29.52Z" fill="#FFFFFF" fill-opacity="1.000000" fill-rule="nonzero"/>
		<path id="Vector" d="M28.08 14.43L23.6 11.97L19.39 16L23.6 20.02L28.08 17.56C29.3 16.88 29.3 15.11 28.08 14.43Z" fill="#FFFFFF" fill-opacity="1.000000" fill-rule="nonzero"/>
	</g>
</svg>
