<svg width="28.000000" height="28.000000" viewBox="0 0 28 28" fill="none" xmlns="http://www.w3.org/2000/svg" xmlns:xlink="http://www.w3.org/1999/xlink">
	<desc>
			Created with Pixso.
	</desc>
	<defs/>
	<path id="Vector" d="M14 0C6.26 0 0 6.26 0 14C0 21.73 6.26 28 14 28C21.73 28 28 21.73 28 14C28 6.26 21.73 0 14 0ZM8.68 20.11C8.6 20.26 8.47 20.38 8.33 20.46C8.18 20.55 8.01 20.59 7.84 20.59C7.67 20.59 7.5 20.55 7.35 20.46C7.24 20.39 7.14 20.31 7.07 20.21C6.99 20.1 6.93 19.99 6.9 19.87C6.87 19.74 6.86 19.61 6.88 19.49C6.89 19.36 6.94 19.24 7 19.13L7.96 17.54C8 17.46 8.07 17.39 8.16 17.34C8.24 17.3 8.33 17.27 8.43 17.27L8.57 17.27C9.26 17.27 9.75 17.69 9.89 18.09L8.68 20.11ZM16.77 16.99L10.52 17L6.36 17C6.22 17 6.1 16.97 5.97 16.92C5.85 16.87 5.75 16.79 5.65 16.7C5.56 16.6 5.49 16.49 5.45 16.37C5.4 16.25 5.38 16.12 5.39 15.99C5.41 15.46 5.86 15.06 6.39 15.06L9.4 15.06L12.98 8.98L11.82 7.01C11.56 6.56 11.67 5.96 12.12 5.68C12.23 5.61 12.35 5.56 12.48 5.54C12.61 5.52 12.74 5.52 12.87 5.55C13 5.58 13.12 5.64 13.23 5.72C13.33 5.79 13.42 5.89 13.49 6.01L14.11 7.06L14.11 7.06L14.73 6.01C14.8 5.89 14.89 5.8 14.99 5.72C15.1 5.64 15.22 5.58 15.34 5.55C15.47 5.52 15.6 5.52 15.73 5.54C15.86 5.56 15.98 5.61 16.1 5.68C16.54 5.96 16.65 6.56 16.39 7.01L15.23 8.98L14.11 10.9L11.67 15.07L11.67 15.07L15.27 15.07C15.72 15.07 16.28 15.31 16.51 15.7L16.53 15.75C16.73 16.09 16.85 16.32 16.85 16.67C16.84 16.78 16.82 16.89 16.78 16.99L16.77 16.99ZM21.63 17L19.94 17L19.94 17L21.18 19.11C21.31 19.33 21.35 19.6 21.29 19.85C21.23 20.1 21.07 20.32 20.85 20.45C20.7 20.55 20.53 20.6 20.35 20.6C20.18 20.6 20.01 20.55 19.87 20.47C19.72 20.39 19.59 20.27 19.51 20.12L17.68 17L16.54 15.07L15.07 12.56C14.86 12.2 14.74 11.79 14.74 11.38C14.73 10.96 14.83 10.55 15.03 10.18C15.32 9.67 15.54 9.54 15.54 9.54L18.81 15.06L21.61 15.06C22.14 15.06 22.59 15.46 22.61 15.98C22.62 16.11 22.6 16.24 22.55 16.37C22.5 16.49 22.43 16.6 22.34 16.7C22.25 16.79 22.14 16.87 22.02 16.92C21.9 16.97 21.77 17 21.63 17L21.63 17Z" fill="#FFFFFF" fill-opacity="1.000000" fill-rule="nonzero"/>
</svg>
